# xmcd
#
# Track frame offsets:
#	150
#	20560
#	40071
#	59693
#	78319
#	97987
#	114107
#	134838
#	153188
#	170512
#
# Disc length: 2544 seconds
#
# Revision: 1
# Processed by: cddbd v1.5.2PL0 Copyright (c) Steve Scherf et al.
# Submitted via: audiograbber 1.83.01
#
DISCID=7a09ee0a
DTITLE=The Rippingtons - True Stories
DYEAR=2016
DGENRE=Jazz
TTITLE0=Wild Tales
TTITLE1=Sundance
TTITLE2=Flamenco Beach
TTITLE3=My Promise To You
TTITLE4=Reach Higher
TTITLE5=Dreamcatcher
TTITLE6=Wonderland
TTITLE7=Kings Road
TTITLE8=Golden Child
TTITLE9=True Stories
EXTD=
EXTT0=
EXTT1=
EXTT2=
EXTT3=
EXTT4=
EXTT5=
EXTT6=
EXTT7=
EXTT8=
EXTT9=
PLAYORDER=
